<svg width="130" height="213" viewBox="0 0 130 213" fill="none" xmlns="http://www.w3.org/2000/svg">
<g clip-path="url(#clip0_2648_4887)">
<path d="M11.9612 207.705C8.55897 207.626 5.82812 205.112 5.82812 202.021V147.208" stroke="#2F3645" stroke-width="3" stroke-miterlimit="10"/>
<path d="M65.0286 170.334V196.184V196.402" stroke="#2F3645" stroke-width="3" stroke-miterlimit="10" stroke-linecap="round"/>
<path d="M65.0286 197.255V197.148" stroke="#2F3645" stroke-width="3" stroke-miterlimit="10" stroke-linecap="round"/>
<path d="M129.299 150.202V203.841C129.299 208.513 124.966 212.301 119.625 212.301H10.3766C5.03218 212.301 0.702118 208.512 0.702118 203.841V150.128C0.7329 147.402 2.80265 145.106 5.83692 144.278L5.8633 199.091V199.685C5.8633 202.459 8.59414 204.705 11.9963 204.777H58.7328C62.1438 204.777 64.9201 204.777 65.0256 196.871C65.0256 196.913 65.0256 196.957 65.0256 197.001C65.0256 197.045 65.0256 197.097 65.0256 197.147V196.399C65.0256 204.777 67.8444 204.777 71.3214 204.777H118.065C119.621 204.765 121.129 204.24 122.354 203.286C123.493 202.364 124.198 201.096 124.198 199.685V197.17L124.225 144.217C127.156 145.037 129.173 147.232 129.291 149.865C129.296 149.977 129.299 150.088 129.299 150.202Z" fill="#E6B9A6" stroke="#2F3645" stroke-width="3" stroke-miterlimit="10"/>
<path d="M124.198 144.217V189.066V197.17V198.007" stroke="#2F3645" stroke-width="3" stroke-miterlimit="10"/>
<path d="M124.198 199.092C124.195 200.317 123.766 201.504 122.985 202.45C122.97 202.471 122.954 202.49 122.939 202.507C122.336 203.21 121.59 203.777 120.749 204.169C119.908 204.561 118.993 204.77 118.065 204.781" stroke="#2F3645" stroke-width="3" stroke-miterlimit="10"/>
<path d="M65.0286 196.402C65.0286 196.534 65.0286 196.662 65.0286 196.789C65.0271 196.795 65.0271 196.801 65.0286 196.807C65.0286 196.824 65.0286 196.84 65.0286 196.858V196.874" stroke="#2F3645" stroke-width="3" stroke-miterlimit="10"/>
<path d="M124.198 136.075V189.067C124.198 192.208 121.379 194.754 117.903 194.754L71.3243 192.066C65.6721 192.066 65.0726 193.595 65.0286 196.184C65.0286 196.378 65.0286 196.581 65.0286 196.788C65.0271 196.794 65.0271 196.8 65.0286 196.806V197.003C65.0286 196.959 65.0286 196.915 65.0286 196.873V196.857C64.9978 193.887 64.8072 192.066 58.7358 192.066L12.1547 194.754C8.6777 194.754 5.86331 192.208 5.86331 189.067V136.075C5.86331 132.933 8.6821 130.38 12.1664 130.38L42.5442 128.149C46.6378 127.848 50.7421 127.697 54.8572 127.696H58.7343C62.2113 127.696 65.03 131.589 65.03 134.73C65.03 131.589 67.8488 127.696 71.3258 127.696H75.1369C79.2413 127.696 83.3363 127.847 87.4221 128.149L117.911 130.386C121.379 130.386 124.198 132.933 124.198 136.075Z" fill="white" stroke="#2F3645" stroke-width="3" stroke-linejoin="round"/>
<path d="M65.0198 153.456C67.8322 153.456 70.1121 151.893 70.1121 149.965C70.1121 148.037 67.8322 146.474 65.0198 146.474C62.2074 146.474 59.9275 148.037 59.9275 149.965C59.9275 151.893 62.2074 153.456 65.0198 153.456Z" stroke="#2F3645" stroke-width="3" stroke-miterlimit="10" stroke-linecap="round"/>
<path d="M74.0317 145.189L78.2225 148.996" stroke="#2F3645" stroke-width="3" stroke-miterlimit="10" stroke-linecap="round"/>
<path d="M74.0317 148.996L78.2225 145.189" stroke="#2F3645" stroke-width="3" stroke-miterlimit="10" stroke-linecap="round"/>
<path d="M51.8405 145.189L56.0299 148.996" stroke="#2F3645" stroke-width="3" stroke-miterlimit="10" stroke-linecap="round"/>
<path d="M51.8405 148.996L56.0299 145.189" stroke="#2F3645" stroke-width="3" stroke-miterlimit="10" stroke-linecap="round"/>
</g>
<path d="M89.7718 2H39.2595C36.3366 1.99941 33.4422 2.57462 30.7415 3.69278C28.0409 4.81094 25.587 6.45015 23.5199 8.51678C21.4529 10.5834 19.8132 13.037 18.6945 15.7374C17.5758 18.4378 17 21.3321 17 24.2551V74.7941C17 77.7171 17.5758 80.6114 18.6945 83.3118C19.8132 86.0122 21.4529 88.4658 23.5199 90.5324C25.587 92.599 28.0409 94.2383 30.7415 95.3564C33.4422 96.4746 36.3366 97.0498 39.2595 97.0492H53.8622L59.8106 107.747C60.183 108.416 60.7236 108.976 61.3789 109.371C62.0342 109.767 62.7815 109.984 63.5466 110.001C64.3118 110.019 65.0683 109.836 65.7411 109.472C66.4139 109.107 66.9798 108.573 67.3825 107.922L74.0912 97.0492H89.7449C92.6675 97.0492 95.5615 96.4735 98.2616 95.3551C100.962 94.2367 103.415 92.5974 105.482 90.5308C107.548 88.4643 109.188 86.0109 110.306 83.3108C111.424 80.6107 112 77.7167 112 74.7941V24.2551C112 18.3573 109.659 12.7007 105.491 8.52784C101.323 4.35497 95.6695 2.00711 89.7718 2Z" stroke="#2F3645" stroke-width="3" stroke-miterlimit="10"/>
<path d="M65 21.829C70.3739 21.829 75.6272 23.4225 80.0954 26.4081C84.5637 29.3937 88.0462 33.6372 90.1028 38.6021C92.1593 43.5669 92.6973 49.0301 91.6489 54.3008C90.6005 59.5715 88.0128 64.4129 84.2128 68.2128C80.4129 72.0127 75.5715 74.6005 70.3008 75.6489C65.0301 76.6973 59.567 76.1592 54.6021 74.1027C49.6373 72.0462 45.3937 68.5637 42.4081 64.0954C39.4225 59.6272 37.829 54.3739 37.829 49C37.8375 41.7964 40.7029 34.8903 45.7966 29.7966C50.8903 24.7029 57.7964 21.8375 65 21.829ZM65 17C58.671 17 52.4841 18.8768 47.2218 22.393C41.9594 25.9092 37.8579 30.9069 35.4359 36.7541C33.0139 42.6014 32.3802 49.0355 33.6149 55.2429C34.8496 61.4503 37.8973 67.1521 42.3726 71.6274C46.8479 76.1027 52.5497 79.1504 58.7571 80.3851C64.9645 81.6198 71.3986 80.9861 77.2459 78.5641C83.0931 76.1421 88.0908 72.0406 91.607 66.7782C95.1232 61.5159 97 55.329 97 49C97 40.5131 93.6286 32.3737 87.6274 26.3726C81.6263 20.3714 73.4869 17 65 17Z" fill="#2F3645"/>
<path d="M39.3758 35.4795H90.5307" stroke="#2F3645" stroke-width="5" stroke-linecap="round" stroke-linejoin="round"/>
<path d="M38.6967 61.4922H89.8838" stroke="#2F3645" stroke-width="5" stroke-linecap="round" stroke-linejoin="round"/>
<path d="M65.001 78.2324C72.7708 78.2324 79.0694 65.1739 79.0694 49.0654C79.0694 32.9569 72.7708 19.8984 65.001 19.8984C57.2312 19.8984 50.9326 32.9569 50.9326 49.0654C50.9326 65.1739 57.2312 78.2324 65.001 78.2324Z" stroke="#2F3645" stroke-width="5" stroke-linecap="round" stroke-linejoin="round"/>
<path d="M82.5458 78.4907C80.1708 78.4907 77.8492 77.7864 75.8745 76.467C73.8997 75.1475 72.3606 73.2721 71.4518 71.0779C70.5429 68.8838 70.3051 66.4693 70.7685 64.14C71.2318 61.8107 72.3754 59.671 74.0548 57.9917C75.7342 56.3123 77.8738 55.1687 80.2031 54.7053C82.5324 54.242 84.9469 54.4798 87.141 55.3887C89.3352 56.2975 91.2106 57.8366 92.5301 59.8113C93.8496 61.7861 94.5538 64.1077 94.5538 66.4827C94.5453 69.6648 93.2775 72.7141 91.0274 74.9642C88.7772 77.2143 85.7279 78.4822 82.5458 78.4907Z" fill="#E6B9A6"/>
<path d="M82.5458 56.8896C84.4559 56.8896 86.3232 57.456 87.9114 58.5172C89.4997 59.5784 90.7376 61.0868 91.4685 62.8516C92.1995 64.6163 92.3908 66.5582 92.0181 68.4317C91.6455 70.3051 90.7257 72.026 89.375 73.3767C88.0243 74.7274 86.3034 75.6472 84.4299 76.0199C82.5565 76.3925 80.6146 76.2013 78.8498 75.4703C77.0851 74.7393 75.5767 73.5014 74.5155 71.9132C73.4542 70.3249 72.8878 68.4577 72.8878 66.5475C72.8878 63.9861 73.9054 61.5295 75.7166 59.7183C77.5278 57.9071 79.9843 56.8896 82.5458 56.8896ZM82.5458 52.0606C79.6933 52.0606 76.9048 52.9064 74.533 54.4912C72.1613 56.076 70.3127 58.3285 69.2211 60.9639C68.1295 63.5992 67.8439 66.4991 68.4004 69.2968C68.9569 72.0945 70.3305 74.6644 72.3475 76.6814C74.3645 78.6984 76.9344 80.072 79.7321 80.6285C82.5298 81.185 85.4297 80.8994 88.065 79.8078C90.7004 78.7162 92.9529 76.8676 94.5377 74.4958C96.1224 72.1241 96.9683 69.3356 96.9683 66.4831C96.9725 64.5879 96.6024 62.7106 95.8791 60.9588C95.1558 59.2071 94.0936 57.6155 92.7535 56.2754C91.4134 54.9353 89.8218 53.8731 88.07 53.1498C86.3183 52.4265 84.441 52.0563 82.5458 52.0606Z" fill="#2F3645"/>
<path d="M78.8752 63.1641L86.2153 70.5041" stroke="#2F3645" stroke-width="5" stroke-linecap="round" stroke-linejoin="round"/>
<path d="M86.2153 63.1641L78.8752 70.5041" stroke="#2F3645" stroke-width="5" stroke-linecap="round" stroke-linejoin="round"/>
<defs>
<clipPath id="clip0_2648_4887">
<rect width="130" height="86" fill="white" transform="translate(0 127)"/>
</clipPath>
</defs>
</svg>
